<svg xmlns="http://www.w3.org/2000/svg" fill="none" viewBox="0 0 129 43">
  <path fill="#000" d="M8.27 42.05c-.33 0-.65 0-.98-.02a13.77 13.77 0 0 1-2.05-.18 6.4 6.4 0 0 1-1.8-.6 5.91 5.91 0 0 1-1.53-1.11A5.85 5.85 0 0 1 .79 38.6a6.32 6.32 0 0 1-.6-1.82 13.72 13.72 0 0 1-.17-2.06l-.02-1V8.31l.02-.98c0-.7.07-1.38.18-2.06a6.35 6.35 0 0 1 .6-1.83 5.89 5.89 0 0 1 1.1-1.53A6.08 6.08 0 0 1 5.24.19 13.68 13.68 0 0 1 7.29.01L8.28 0h112.3l1 .01c.68.01 1.36.07 2.03.18.64.11 1.25.31 1.83.6a6.13 6.13 0 0 1 2.64 2.67 6.38 6.38 0 0 1 .58 1.8 14.42 14.42 0 0 1 .2 3.06v25.39l-.01 1.02a14.05 14.05 0 0 1-.19 2.04 6.31 6.31 0 0 1-.59 1.83 6.02 6.02 0 0 1-1.1 1.53 5.92 5.92 0 0 1-1.54 1.12 6.38 6.38 0 0 1-1.82.6c-.68.11-1.36.17-2.04.18l-.98.02H8.27Z"/>
  <path fill="#fff" d="M26.12 21.35a5.47 5.47 0 0 1 .7-2.61 5.43 5.43 0 0 1 1.87-1.95 5.55 5.55 0 0 0-1.9-1.7 5.51 5.51 0 0 0-2.46-.67c-1.84-.2-3.62 1.1-4.55 1.1-.95 0-2.4-1.08-3.94-1.05a5.78 5.78 0 0 0-2.84.85 5.83 5.83 0 0 0-2.05 2.15c-2.11 3.68-.54 9.09 1.49 12.06 1.01 1.46 2.2 3.09 3.74 3.03 1.52-.06 2.08-.97 3.91-.97 1.82 0 2.35.97 3.93.93 1.62-.02 2.65-1.46 3.63-2.93a12.08 12.08 0 0 0 1.66-3.4 5.23 5.23 0 0 1-2.32-1.94 5.28 5.28 0 0 1-.87-2.9Zm-2.99-8.89a5.38 5.38 0 0 0 1.22-3.84 5.4 5.4 0 0 0-3.5 1.83 5.1 5.1 0 0 0-1.26 3.7 4.46 4.46 0 0 0 1.97-.44 4.48 4.48 0 0 0 1.57-1.25Zm22.15 16.41H40.1l-1.24 3.7h-2.19l4.9-13.66h2.28l4.9 13.65h-2.23l-1.24-3.69Zm-4.64-1.7h4.1l-2.02-5.99h-.06l-2.02 5.99Zm18.69.42c0 3.09-1.65 5.08-4.13 5.08a3.34 3.34 0 0 1-1.8-.42 3.37 3.37 0 0 1-1.31-1.32h-.05v4.92H50V22.61h1.96v1.65H52a3.52 3.52 0 0 1 1.34-1.31 3.5 3.5 0 0 1 1.81-.45c2.51 0 4.17 2 4.17 5.08Zm-2.09 0c0-2.02-1.03-3.34-2.61-3.34-1.56 0-2.6 1.35-2.6 3.34 0 2 1.04 3.34 2.6 3.34 1.58 0 2.61-1.31 2.61-3.34Zm12.98 0c0 3.09-1.65 5.08-4.13 5.08a3.34 3.34 0 0 1-1.8-.42 3.36 3.36 0 0 1-1.31-1.32h-.05v4.92H60.9V22.61h1.96v1.65h.04a3.52 3.52 0 0 1 1.34-1.31 3.5 3.5 0 0 1 1.81-.45c2.51 0 4.17 2 4.17 5.08Zm-2.09 0c0-2.02-1.03-3.34-2.61-3.34-1.56 0-2.6 1.35-2.6 3.34 0 2 1.04 3.34 2.6 3.34 1.58 0 2.61-1.31 2.61-3.34Zm9.29 1.17c.15 1.35 1.45 2.24 3.24 2.24 1.71 0 2.94-.89 2.94-2.1 0-1.07-.74-1.7-2.5-2.14l-1.76-.42c-2.49-.6-3.65-1.78-3.65-3.68 0-2.36 2.04-3.98 4.94-3.98 2.87 0 4.84 1.62 4.9 3.98h-2.05c-.12-1.37-1.24-2.19-2.88-2.19-1.63 0-2.75.83-2.75 2.05 0 .96.71 1.53 2.46 1.96l1.5.37c2.78.66 3.94 1.79 3.94 3.79 0 2.55-2.02 4.15-5.24 4.15-3.01 0-5.04-1.56-5.17-4.03h2.08Zm12.71-8.5v2.35h1.88v1.62h-1.88v5.48c0 .86.38 1.25 1.2 1.25.23 0 .45-.02.67-.04v1.6a5.55 5.55 0 0 1-1.13.1c-2 0-2.78-.76-2.78-2.69v-5.7h-1.44V22.6h1.44v-2.36h2.04Zm2.97 7.33c0-3.13 1.84-5.1 4.7-5.1 2.86 0 4.69 1.97 4.69 5.1 0 3.14-1.82 5.1-4.7 5.1-2.87 0-4.69-1.96-4.69-5.1Zm7.32 0c0-2.15-.98-3.42-2.63-3.42-1.64 0-2.62 1.28-2.62 3.42 0 2.15.98 3.41 2.62 3.41 1.65 0 2.63-1.26 2.63-3.41Zm3.74-4.98h1.94v1.7h.05c.13-.54.43-1 .87-1.33a2.35 2.35 0 0 1 1.5-.47c.24 0 .47.02.7.07v1.91a2.82 2.82 0 0 0-.91-.12 2.03 2.03 0 0 0-1.58.65 2.06 2.06 0 0 0-.54 1.64v5.9h-2.03v-9.95Zm14.43 7.03c-.28 1.8-2.03 3.05-4.26 3.05-2.88 0-4.67-1.94-4.67-5.06 0-3.12 1.8-5.14 4.58-5.14 2.74 0 4.46 1.89 4.46 4.9v.7h-6.99v.13a2.6 2.6 0 0 0 1.6 2.63c.33.14.7.2 1.06.19.48.04.96-.07 1.37-.32a2.25 2.25 0 0 0 .92-1.08h1.92Zm-6.87-2.97h4.95a2.4 2.4 0 0 0-1.47-2.35 2.37 2.37 0 0 0-.96-.18 2.49 2.49 0 0 0-1.78.74 2.52 2.52 0 0 0-.74 1.79ZM40.39 8.63a2.87 2.87 0 0 1 2.3.9 2.9 2.9 0 0 1 .76 2.36c0 2.1-1.12 3.3-3.06 3.3h-2.36V8.63h2.35Zm-1.35 5.64h1.23a2.04 2.04 0 0 0 1.63-.67 2.07 2.07 0 0 0 .52-1.7 2.08 2.08 0 0 0-.52-1.68 2.06 2.06 0 0 0-1.63-.66h-1.23v4.7Zm5.56-1.55a2.36 2.36 0 0 1 .6-1.8 2.33 2.33 0 0 1 1.72-.77 2.32 2.32 0 0 1 1.72.77 2.35 2.35 0 0 1 .6 1.8 2.36 2.36 0 0 1-.6 1.8 2.33 2.33 0 0 1-1.72.77 2.32 2.32 0 0 1-1.73-.77 2.35 2.35 0 0 1-.6-1.8Zm3.64 0c0-1.08-.48-1.7-1.32-1.7-.84 0-1.32.62-1.32 1.7s.47 1.7 1.32 1.7c.84 0 1.32-.63 1.32-1.7Zm7.17 2.47H54.4l-1.02-3.64h-.07l-1.02 3.64h-1l-1.35-4.95h.98l.89 3.78h.07l1.01-3.78h.93l1.01 3.78h.08l.88-3.78h.97L55.4 15.2Zm2.49-4.95h.93v.79h.08a1.47 1.47 0 0 1 1.46-.88 1.6 1.6 0 0 1 1.3.5 1.61 1.61 0 0 1 .4 1.34v3.2h-.96v-2.96c0-.8-.35-1.19-1.06-1.19a1.12 1.12 0 0 0-1.13.78 1.14 1.14 0 0 0-.05.48v2.9h-.97v-4.96Zm5.73-1.93h.97v6.88h-.97V8.31Zm2.32 4.4a2.36 2.36 0 0 1 .6-1.8 2.33 2.33 0 0 1 1.72-.76 2.32 2.32 0 0 1 1.72.77 2.35 2.35 0 0 1 .6 1.8 2.36 2.36 0 0 1-.6 1.8 2.33 2.33 0 0 1-1.72.77 2.32 2.32 0 0 1-1.73-.77 2.35 2.35 0 0 1-.6-1.8Zm3.64 0c0-1.07-.48-1.7-1.32-1.7-.84 0-1.32.63-1.32 1.7 0 1.09.48 1.71 1.32 1.71.84 0 1.32-.63 1.32-1.7Zm2.02 1.08c0-.89.66-1.4 1.83-1.47l1.34-.08v-.43c0-.52-.35-.82-1.01-.82-.54 0-.92.2-1.03.55h-.94c.1-.85.9-1.4 2.01-1.4 1.24 0 1.93.63 1.93 1.67v3.38h-.93v-.7h-.08a1.66 1.66 0 0 1-1.48.79 1.48 1.48 0 0 1-1.14-.38 1.5 1.5 0 0 1-.5-1.1Zm3.17-.42v-.41l-1.2.07c-.68.05-1 .28-1 .72 0 .44.4.7.92.7a1.15 1.15 0 0 0 1.15-.63c.07-.14.11-.3.13-.45Zm2.24-.65c0-1.57.8-2.56 2.04-2.56a1.61 1.61 0 0 1 1.5.87h.08V8.31h.97v6.88h-.93v-.78h-.07a1.71 1.71 0 0 1-1.55.87c-1.25 0-2.04-1-2.04-2.56Zm1 0c0 1.05.5 1.68 1.32 1.68.81 0 1.32-.64 1.32-1.68 0-1.03-.51-1.68-1.32-1.68-.82 0-1.32.64-1.32 1.68Zm7.61 0a2.36 2.36 0 0 1 .6-1.8 2.33 2.33 0 0 1 1.72-.77 2.32 2.32 0 0 1 1.73.77 2.35 2.35 0 0 1 .6 1.8 2.36 2.36 0 0 1-.6 1.8 2.33 2.33 0 0 1-1.73.77 2.32 2.32 0 0 1-1.73-.77 2.35 2.35 0 0 1-.59-1.8Zm3.64 0c0-1.08-.48-1.7-1.32-1.7-.84 0-1.32.62-1.32 1.7s.48 1.7 1.32 1.7c.84 0 1.32-.63 1.32-1.7Zm2.3-2.48h.94v.79h.07a1.47 1.47 0 0 1 1.47-.88 1.6 1.6 0 0 1 1.3.5 1.61 1.61 0 0 1 .4 1.34v3.2h-.97v-2.96c0-.8-.34-1.19-1.06-1.19a1.12 1.12 0 0 0-1.12.78c-.05.15-.07.32-.05.48v2.9h-.97v-4.96Zm9.67-1.23v1.26h1.07v.82h-1.07v2.54c0 .52.21.75.7.75.12 0 .25 0 .37-.02v.81a3.16 3.16 0 0 1-.53.05c-1.08 0-1.51-.38-1.51-1.33v-2.8h-.78v-.82h.78V9h.97Zm2.4-.7h.96v2.73h.07a1.5 1.5 0 0 1 1.5-.89 1.61 1.61 0 0 1 1.28.52 1.63 1.63 0 0 1 .42 1.33v3.2h-.97v-2.96c0-.79-.37-1.2-1.05-1.2a1.14 1.14 0 0 0-.91.35 1.16 1.16 0 0 0-.33.91v2.9h-.97V8.3Zm9.9 5.55a2 2 0 0 1-.82 1.1c-.39.26-.85.38-1.32.33a2.23 2.23 0 0 1-1.73-.75 2.26 2.26 0 0 1-.54-1.8 2.3 2.3 0 0 1 .54-1.82 2.27 2.27 0 0 1 1.73-.77c1.36 0 2.2.94 2.2 2.5v.33h-3.48v.06a1.32 1.32 0 0 0 .34 1 1.3 1.3 0 0 0 .97.42 1.17 1.17 0 0 0 1.17-.6h.93Zm-3.42-1.6h2.48a1.2 1.2 0 0 0-.73-1.19 1.18 1.18 0 0 0-.48-.09 1.25 1.25 0 0 0-.9.37 1.27 1.27 0 0 0-.37.91Z"/>
</svg>