<svg xmlns="http://www.w3.org/2000/svg" fill="none" viewBox="0 0 32 32">
  <path fill="#393939" d="M16 29.33a4 4 0 0 1-2.83-1.17l-.98-.97a2 2 0 0 0-1.42-.58H9.41a4.02 4.02 0 0 1-4.02-4.02v-1.37c0-.53-.2-1.04-.59-1.42l-.95-.96a4.02 4.02 0 0 1-.02-5.67l.98-.98a2 2 0 0 0 .58-1.41V9.4c0-2.22 1.8-4.02 4.02-4.02h1.37a2 2 0 0 0 1.41-.59l.96-.95a4.02 4.02 0 0 1 5.68-.02l.97.98a2 2 0 0 0 1.42.58h1.37c2.21 0 4.02 1.8 4.02 4.02v1.37a2 2 0 0 0 .58 1.42l.96.95a3.99 3.99 0 0 1 .03 5.67l-.04.04-.95.94a2 2 0 0 0-.58 1.42v1.37c0 2.21-1.8 4.02-4.02 4.02h-1.37a2 2 0 0 0-1.42.58l-.96.96A4 4 0 0 1 16 29.33" opacity=".4"/>
  <path fill="#00F6FF" fill-rule="evenodd" d="M13.39 13.4c-.22.22-.5.34-.82.34a1.17 1.17 0 0 1-1.17-1.17c0-.29.13-.59.34-.82a1.17 1.17 0 0 1 1.91.37 1.12 1.12 0 0 1-.26 1.28Zm6.86-1.65a1.17 1.17 0 0 0-1.65 0l-6.85 6.85a1.17 1.17 0 0 0 1.65 1.65l6.85-6.85c.46-.46.46-1.2 0-1.65Zm-.38 6.6a1.18 1.18 0 0 0-1.28.26 1.6 1.6 0 0 0-.24.36c-.07.16-.08.34-.08.46a1.13 1.13 0 0 0 .33.83 1.2 1.2 0 0 0 1.66-.01c.21-.21.33-.5.33-.82 0-.32-.12-.62-.33-.83-.12-.11-.26-.2-.39-.25Z" clip-rule="evenodd"/>
</svg>