<svg xmlns="http://www.w3.org/2000/svg" fill="none" viewBox="0 0 145 44">
  <path fill="#000" d="M138.83 43.04H5.34A5.38 5.38 0 0 1 0 37.66V5.38C0 2.42 2.4 0 5.34 0h133.49a5.38 5.38 0 0 1 5.34 5.38v32.28c0 2.96-2.4 5.38-5.34 5.38"/>
  <path fill="#fff" d="M50.64 11.02c0 .9-.27 1.62-.8 2.16a3.1 3.1 0 0 1-2.35.95 3.2 3.2 0 0 1-2.36-.97 3.26 3.26 0 0 1-.97-2.4c0-.96.32-1.76.97-2.4a3.21 3.21 0 0 1 2.36-.97c.46 0 .9.09 1.31.27.42.18.75.42 1 .72l-.56.57c-.42-.51-1-.77-1.75-.77A2.48 2.48 0 0 0 45 10.76a2.48 2.48 0 0 0 2.49 2.58c.71 0 1.3-.24 1.79-.72.3-.32.49-.75.53-1.31H47.5v-.78h3.1c.03.17.05.33.05.5"/>
  <path fill="#fff" d="M50.64 11.02h-.11a2.8 2.8 0 0 1-.77 2.08c-.58.62-1.33.92-2.27.92a3.1 3.1 0 0 1-2.29-.93 3.15 3.15 0 0 1-.94-2.33c0-.93.32-1.7.94-2.33a3.1 3.1 0 0 1 2.29-.94c.44 0 .87.1 1.27.27s.72.4.96.69l.08-.07-.07-.08-.56.57.07.08.08-.07a2.27 2.27 0 0 0-1.83-.8 2.59 2.59 0 0 0-2.6 2.69 2.59 2.59 0 0 0 2.6 2.68c.74 0 1.37-.26 1.86-.76.33-.33.52-.8.57-1.37l.01-.12h-2.34v-.56h3v-.1l-.1.01c.03.17.04.32.04.47h.21c0-.16-.01-.33-.04-.5l-.02-.1h-3.3v1h2.43v-.11l-.1-.01c-.05.54-.22.95-.51 1.24a2.3 2.3 0 0 1-1.71.69 2.37 2.37 0 0 1-2.38-2.47 2.37 2.37 0 0 1 2.38-2.47c.72 0 1.26.24 1.67.73l.07.09.65-.66.07-.06-.06-.08a2.74 2.74 0 0 0-1.05-.75 3.39 3.39 0 0 0-1.35-.28 3.4 3.4 0 0 0-3.44 3.48 3.41 3.41 0 0 0 3.44 3.48c.98 0 1.8-.33 2.43-.99l-.08-.07.08.07c.55-.55.82-1.3.82-2.23h-.1Zm4.92-2.7h-2.92v2.05h2.63v.78h-2.63v2.04h2.92v.8h-3.74V7.53h3.74v.8"/>
  <path fill="#fff" d="M55.56 8.32v-.1h-3.03v2.26h2.64v.56h-2.64v2.26h2.92v.58h-3.52V7.64h3.52v.68h.1v-.1.1h.12v-.9H51.7v6.67h3.96v-1h-2.92v-1.84h2.63v-.99h-2.63V8.43h2.92v-.1h-.11ZM59.03 14h-.82V8.32h-1.8v-.79h4.41v.8h-1.79v5.66"/>
  <path fill="#fff" d="M59.03 13.99v-.11h-.72V8.22h-1.79v-.58h4.2v.58h-1.8v5.77h.11v-.11.1h.1V8.44h1.8v-1H56.3v1h1.8v5.66h1.03V14h-.1Zm4.98 0V7.53h.82V14h-.82"/>
  <path fill="#fff" d="M64.01 13.99h.1V7.64h.62v6.24H64v.1h.1-.1v.11h.93V7.42H63.9v6.67h.11V14Zm4.48 0h-.83V8.32h-1.79v-.79h4.4v.8H68.5v5.66"/>
  <path fill="#fff" d="M68.48 13.99v-.11h-.71V8.22h-1.8v-.58h4.2v.58h-1.8v5.77h.11v-.11.1h.11V8.44h1.8v-1h-4.63v1h1.8v5.66h1.03V14h-.1Zm6.04-1.38c.47.49 1.05.73 1.74.73s1.27-.24 1.74-.73c.47-.48.71-1.1.71-1.85S78.47 9.39 78 8.9a2.34 2.34 0 0 0-1.74-.73c-.69 0-1.27.24-1.74.73-.47.48-.71 1.1-.71 1.85s.24 1.37.7 1.85Zm4.09.54a3.1 3.1 0 0 1-2.35.98 3.31 3.31 0 0 1-3.3-3.37 3.31 3.31 0 0 1 3.3-3.37 3.31 3.31 0 0 1 3.3 3.37c0 .94-.32 1.74-.95 2.4Z"/>
  <path fill="#fff" d="m74.52 12.61-.08.08c.5.5 1.1.76 1.82.76.7 0 1.32-.26 1.81-.76.5-.5.75-1.16.75-1.93s-.25-1.43-.75-1.93c-.49-.5-1.1-.76-1.81-.76s-1.33.26-1.82.76c-.5.5-.74 1.16-.74 1.93s.25 1.42.74 1.93l.08-.08.07-.07a2.43 2.43 0 0 1-.68-1.78c0-.73.23-1.31.68-1.78.46-.46 1-.69 1.67-.7.66.01 1.2.24 1.66.7.45.47.68 1.05.68 1.78s-.23 1.31-.68 1.78c-.46.46-1 .69-1.66.69-.67 0-1.21-.23-1.67-.7l-.07.08Zm4.09.54-.08-.07c-.61.63-1.36.94-2.27.94-.92 0-1.66-.31-2.28-.94a3.2 3.2 0 0 1-.91-2.32c0-.92.3-1.69.91-2.32a3.02 3.02 0 0 1 2.28-.95 3.2 3.2 0 0 1 3.19 3.26c0 .93-.31 1.7-.92 2.33l.08.07.07.08c.65-.67.98-1.5.98-2.47a3.42 3.42 0 0 0-3.4-3.48c-.96 0-1.78.34-2.43 1.01-.65.67-.97 1.5-.97 2.47 0 .97.32 1.8.97 2.47a3.24 3.24 0 0 0 2.43 1 3.2 3.2 0 0 0 2.42-1l-.07-.08Zm2.1.84V7.53h1l3.11 5.02h.04l-.04-1.24V7.53h.83V14h-.86l-3.26-5.27h-.04l.04 1.25V14h-.82"/>
  <path fill="#fff" d="M80.71 13.99h.1V7.64h.84l3.12 5.02h.2l-.04-1.35V7.64h.61v6.24h-.69L81.59 8.6h-.2l.04 1.36v3.9h-.72V14h.1-.1v.1h.93V9.96l-.04-1.24h-.1v.1h.03v-.1l-.09.06 3.3 5.31h1.02V7.42h-1.04v3.9l.03 1.24h.11v-.11h-.03v.1l.09-.05-3.15-5.08H80.6v6.67h.11V14Zm33.5 18.29h1.98V18.83h-1.99v13.45Zm17.94-8.6-2.28 5.82h-.07l-2.37-5.83h-2.15l3.55 8.15-2.02 4.54h2.08l5.48-12.69h-2.22Zm-11.3 7.07c-.66 0-1.56-.33-1.56-1.14 0-1.04 1.13-1.44 2.1-1.44.88 0 1.3.2 1.83.45a2.42 2.42 0 0 1-2.37 2.13Zm.24-7.37c-1.44 0-2.94.64-3.56 2.06l1.77.74c.38-.74 1.08-.98 1.82-.98 1.03 0 2.08.62 2.1 1.73v.13a4.38 4.38 0 0 0-2.08-.51c-1.9 0-3.85 1.05-3.85 3.02 0 1.8 1.57 2.96 3.32 2.96a2.8 2.8 0 0 0 2.54-1.31h.07v1.04h1.92V27.1c0-2.39-1.77-3.72-4.05-3.72Zm-12.32 1.93h-2.83V20.7h2.83a2.32 2.32 0 0 1 2.34 2.3c0 1.05-.85 2.31-2.34 2.31Zm-.05-6.48h-4.77v13.45h1.99v-5.1h2.78c2.21 0 4.38-1.6 4.38-4.18 0-2.56-2.17-4.17-4.38-4.17ZM82.7 30.75c-1.38 0-2.53-1.16-2.53-2.75 0-1.62 1.15-2.8 2.53-2.8 1.35 0 2.42 1.18 2.42 2.8 0 1.6-1.07 2.75-2.42 2.75Zm2.28-6.32h-.07a3.14 3.14 0 0 0-2.39-1.03 4.54 4.54 0 0 0-4.35 4.6 4.52 4.52 0 0 0 4.35 4.56c1.09 0 1.95-.49 2.4-1.04h.06v.65c0 1.76-.93 2.7-2.42 2.7-1.22 0-1.98-.9-2.3-1.64l-1.73.73a4.33 4.33 0 0 0 4.03 2.7c2.34 0 4.32-1.38 4.32-4.76v-8.22h-1.9v.75Zm3.27 7.85h2V18.83h-2v13.45Zm4.94-4.44a2.5 2.5 0 0 1 2.37-2.67c.8 0 1.47.4 1.69.97l-4.06 1.7Zm6.2-1.52c-.38-1.03-1.54-2.92-3.9-2.92-2.33 0-4.28 1.86-4.28 4.58a4.46 4.46 0 0 0 4.5 4.58 4.51 4.51 0 0 0 3.8-2.03l-1.55-1.04a2.59 2.59 0 0 1-2.24 1.26 2.31 2.31 0 0 1-2.2-1.38l6.07-2.53-.2-.52Zm-48.4-1.51v1.94h4.62a4.07 4.07 0 0 1-1.05 2.44A4.7 4.7 0 0 1 51 30.61a5.08 5.08 0 0 1-5.06-5.16 5.08 5.08 0 0 1 8.53-3.78l1.36-1.37A6.7 6.7 0 0 0 51 18.34a7.18 7.18 0 0 0-7.16 7.1A7.18 7.18 0 0 0 51 32.56c2.1 0 3.68-.7 4.92-2a6.44 6.44 0 0 0 1.67-4.54c0-.45-.04-.87-.1-1.21h-6.5Zm11.84 5.94c-1.38 0-2.56-1.14-2.56-2.77 0-1.65 1.18-2.77 2.56-2.77 1.38 0 2.56 1.12 2.56 2.77 0 1.63-1.18 2.77-2.56 2.77Zm0-7.35a4.5 4.5 0 0 0-4.56 4.58 4.5 4.5 0 0 0 4.56 4.58 4.5 4.5 0 0 0 4.56-4.58 4.5 4.5 0 0 0-4.56-4.58Zm9.95 7.35c-1.38 0-2.57-1.14-2.57-2.77 0-1.65 1.19-2.77 2.57-2.77 1.37 0 2.56 1.12 2.56 2.77 0 1.63-1.19 2.77-2.56 2.77Zm0-7.35a4.5 4.5 0 0 0-4.56 4.58 4.5 4.5 0 0 0 4.56 4.58 4.5 4.5 0 0 0 4.55-4.58 4.5 4.5 0 0 0-4.55-4.58Z"/>
  <path fill="#00C1FF" d="M13.44 11.27c-.28.25-.44.67-.44 1.22v-.13 18.27-.12c0 .51.14.9.38 1.16l.06.06c.2.18.44.27.73.27.28 0 .6-.09.92-.28l11.94-6.8 4.1-2.35c.53-.3.82-.68.87-1.07-.05-.4-.34-.77-.86-1.07l-4.1-2.34-11.95-6.81a1.9 1.9 0 0 0-.92-.28c-.29 0-.54.1-.73.27Z"/>
  <path fill="url(#a)" d="m13.42 32-.06-.06a1.8 1.8 0 0 1-.36-1.2v.13-18.74.12c0-.57.15-1 .41-1.25L23 21.5 13.42 32Z"/>
  <path fill="url(#b)" d="M26.66 25 23 21.5l3.66-3.5 4.41 2.4c.56.3.88.7.93 1.1-.05.4-.37.8-.93 1.1L26.66 25"/>
  <path fill="url(#c)" d="M13.75 32c-.3 0-.55-.09-.75-.26L23.5 22l3.5 3.25-12.3 6.49c-.34.18-.66.26-.95.26Z"/>
  <path fill="url(#d)" d="M23.5 22 13 11.28c.2-.18.46-.28.75-.28s.6.1.95.3L27 18.42 23.5 22"/>
  <path fill="url(#e)" d="M13.8 32c-.29 0-.54-.09-.74-.26l-.05-.05H13l.06-.07c.2.17.45.26.74.26a2 2 0 0 0 .94-.27L26.92 25l.08.07-.08.05-12.18 6.61a2.07 2.07 0 0 1-.94.27"/>
  <path fill="url(#f)" d="m27.08 25-.08-.07 4.13-2c.53-.26.82-.6.87-.93 0 .12-.03.25-.1.37-.12.24-.38.47-.77.65L27.08 25"/>
  <path fill="url(#g)" d="M32 22c-.05-.45-.34-.89-.87-1.23L27 18.1l.08-.09 4.05 2.63c.58.38.87.87.87 1.37"/>
  <path fill="url(#h)" d="m26.92 18-12.18-6.61a2 2 0 0 0-.94-.27c-.29 0-.54.09-.74.26l-.06-.06.06-.06c.2-.17.45-.26.74-.26a2 2 0 0 1 .94.27L27 17.93l-.08.07"/>
  <defs>
    <linearGradient id="a" x1="19.13" x2="10.13" y1="11.93" y2="20.17" gradientUnits="userSpaceOnUse">
      <stop stop-color="#00A0FF"/>
      <stop offset=".01" stop-color="#00A1FF"/>
      <stop offset=".26" stop-color="#00BEFF"/>
      <stop offset=".51" stop-color="#00D2FF"/>
      <stop offset=".76" stop-color="#00DFFF"/>
      <stop offset="1" stop-color="#00E3FF"/>
    </linearGradient>
    <linearGradient id="b" x1="32.68" x2="11.26" y1="21.44" y2="21.44" gradientUnits="userSpaceOnUse">
      <stop stop-color="#FFE000"/>
      <stop offset=".41" stop-color="#FFBD00"/>
      <stop offset=".78" stop-color="orange"/>
      <stop offset="1" stop-color="#FF9C00"/>
    </linearGradient>
    <linearGradient id="c" x1="25.14" x2="10.97" y1="25.09" y2="40.3" gradientUnits="userSpaceOnUse">
      <stop stop-color="#FF3A44"/>
      <stop offset="1" stop-color="#C31162"/>
    </linearGradient>
    <linearGradient id="d" x1="10.29" x2="17.26" y1="9.69" y2="16.5" gradientUnits="userSpaceOnUse">
      <stop stop-color="#32A071"/>
      <stop offset=".07" stop-color="#2DA771"/>
      <stop offset=".48" stop-color="#15CF74"/>
      <stop offset=".8" stop-color="#06E775"/>
      <stop offset="1" stop-color="#00F076"/>
    </linearGradient>
    <linearGradient id="e" x1="25.07" x2="13.49" y1="27.13" y2="39.3" gradientUnits="userSpaceOnUse">
      <stop stop-color="#CC2E36"/>
      <stop offset="1" stop-color="#9C0E4E"/>
    </linearGradient>
    <linearGradient id="f" x1="32.64" x2="12.59" y1="22" y2="22" gradientUnits="userSpaceOnUse">
      <stop stop-color="#E0C500"/>
      <stop offset=".41" stop-color="#E0A600"/>
      <stop offset=".78" stop-color="#E09100"/>
      <stop offset="1" stop-color="#E08900"/>
    </linearGradient>
    <linearGradient id="g" x1="32.64" x2="12.59" y1="22" y2="22" gradientUnits="userSpaceOnUse">
      <stop stop-color="#FFE840"/>
      <stop offset=".41" stop-color="#FFCE40"/>
      <stop offset=".78" stop-color="#FFBC40"/>
      <stop offset="1" stop-color="#FFB540"/>
    </linearGradient>
    <linearGradient id="h" x1="10.37" x2="15.54" y1="12.01" y2="17.44" gradientUnits="userSpaceOnUse">
      <stop stop-color="#65B895"/>
      <stop offset=".07" stop-color="#62BD95"/>
      <stop offset=".48" stop-color="#50DB97"/>
      <stop offset=".8" stop-color="#44ED98"/>
      <stop offset="1" stop-color="#40F498"/>
    </linearGradient>
  </defs>
</svg>