<svg xmlns="http://www.w3.org/2000/svg" fill="none" viewBox="0 0 21 21">
  <path fill="#fff" d="M20.95 6.17a7.67 7.67 0 0 0-.5-2.54 5.12 5.12 0 0 0-1.2-1.87 5.17 5.17 0 0 0-1.86-1.2 7.7 7.7 0 0 0-2.55-.5A71.69 71.69 0 0 0 10.5 0C7.65 0 7.3.01 6.18.06a7.68 7.68 0 0 0-2.55.49c-.7.27-1.34.68-1.87 1.21a5.17 5.17 0 0 0-1.2 1.86 7.7 7.7 0 0 0-.5 2.55A71.65 71.65 0 0 0 0 10.5c0 2.85.01 3.21.06 4.33.05 1.12.23 1.88.49 2.55a5.25 5.25 0 0 0 3.07 3.07 7.7 7.7 0 0 0 2.55.49c1.12.05 1.48.06 4.33.06s3.2-.01 4.33-.06a7.67 7.67 0 0 0 2.55-.49 5.37 5.37 0 0 0 3.07-3.07 7.7 7.7 0 0 0 .49-2.55c.05-1.12.06-1.48.06-4.33s0-3.2-.05-4.33Zm-1.9 8.58a5.76 5.76 0 0 1-.36 1.95 3.48 3.48 0 0 1-1.99 2c-.37.13-.93.3-1.95.35-1.1.05-1.44.06-4.24.06-2.8 0-3.14 0-4.24-.06a5.76 5.76 0 0 1-1.95-.36 3.23 3.23 0 0 1-1.21-.78 3.27 3.27 0 0 1-.78-1.2 5.78 5.78 0 0 1-.36-1.96c-.05-1.1-.07-1.44-.07-4.24 0-2.8.02-3.14.07-4.24.04-1.03.21-1.58.36-1.95.16-.46.43-.87.78-1.2.34-.36.76-.62 1.21-.79.37-.14.93-.32 1.95-.36 1.1-.05 1.44-.06 4.24-.06 2.8 0 3.14.01 4.25.06a5.7 5.7 0 0 1 1.94.36c.46.17.87.43 1.21.78.35.34.62.75.78 1.21.15.37.32.93.37 1.95.04 1.1.06 1.44.06 4.24 0 2.8-.02 3.13-.06 4.24Z"/>
  <path fill="#fff" d="M10.5 6a4.5 4.5 0 1 0 0 9 4.5 4.5 0 0 0 0-9Zm0 7.42a2.92 2.92 0 1 1 0-5.84 2.92 2.92 0 0 1 0 5.84ZM18 5.5a1.5 1.5 0 1 1-3 0 1.5 1.5 0 0 1 3 0Z"/>
</svg>