<svg xmlns="http://www.w3.org/2000/svg" fill="none" viewBox="0 0 239 120">
  <path fill="#fff" d="M206.66 34.25V63.6H196.2V43.01h-10.1V63.6h-10.47V34.25h31.03z"/>
  <path fill="#fff" fill-rule="evenodd" d="M154.11 64.64c9.38 0 16.34-5.75 16.34-14.47 0-8.43-5.14-13.91-13.72-13.91a13.5 13.5 0 0 0-9.7 3.8 9.68 9.68 0 0 1 9.43-8.6l9.12-.02 4.55-8.71s-10.1.23-14.8.23c-10.74.18-17.99 9.94-17.99 21.79 0 13.8 7.07 19.9 16.77 19.9zm.06-20.67c3.48 0 5.9 2.3 5.9 6.2 0 3.52-2.15 6.42-5.9 6.43-3.59 0-6-2.69-6-6.37 0-3.91 2.41-6.26 6-6.26z" clip-rule="evenodd"/>
  <path fill="#fff" d="M128.82 53.77s-2.48 1.43-6.17 1.7c-4.25.12-8.03-2.56-8.03-7.33 0-4.65 3.34-7.31 7.92-7.31 2.81 0 6.53 1.95 6.53 1.95s2.73-5 4.14-7.5c-2.59-1.95-6.03-3.03-10.03-3.03-10.09 0-17.9 6.58-17.9 15.83 0 9.37 7.34 15.8 17.9 15.6 2.96-.1 7.03-1.14 9.51-2.74z"/>
  <path fill="#5B57A2" d="M0 26.12 14.53 52.1v15.84L.02 93.86 0 26.12z"/>
  <path fill="#D90751" d="m55.8 42.64 13.6-8.34 27.87-.03L55.8 59.68V42.64z"/>
  <path fill="#FAB718" d="m55.72 25.97.08 34.39-14.57-8.95V0l14.5 25.97z"/>
  <path fill="#ED6F26" d="m97.28 34.27-27.87.03-13.69-8.33L41.23 0l56.05 34.27z"/>
  <path fill="#63B22F" d="M55.8 94V77.33l-14.57-8.78V120L55.8 94z"/>
  <path fill="#1487C9" d="M69.38 85.74 14.53 52.1 0 26.11 97.22 85.7l-27.84.04z"/>
  <path fill="#017F36" d="M41.24 120 55.8 94l13.58-8.26 27.84-.04L41.24 120z"/>
  <path fill="#984995" d="m.02 93.86 41.33-25.32-13.9-8.52-12.92 7.92L.02 93.86z"/>
  <path fill="#fff" d="M114.62 83.34c-.32.4-.74.71-1.25.92a4.28 4.28 0 0 1-1.63.32 4.63 4.63 0 0 1-1.63-.28 3.62 3.62 0 0 1-1.26-.78 3.54 3.54 0 0 1-.83-1.22 4.17 4.17 0 0 1-.3-1.6 3.96 3.96 0 0 1 1.08-2.73 3.8 3.8 0 0 1 2.72-1.13c.6 0 1.15.07 1.66.22.5.15.93.4 1.29.75l-.62 1.04a2.89 2.89 0 0 0-1.02-.6 3.61 3.61 0 0 0-1.12-.17c-.34 0-.66.06-.97.19a2.6 2.6 0 0 0-.83.53 2.44 2.44 0 0 0-.56.83c-.14.33-.2.69-.2 1.09a2.63 2.63 0 0 0 .79 1.92 2.9 2.9 0 0 0 1.9.7c.46 0 .87-.09 1.22-.26a3.05 3.05 0 0 0 .93-.7zm1.73 1.06V77h1.33v5.51l4.33-5.51h1.33v7.4H122v-5.5l-4.33 5.51h-1.33zm15.8-1.06a3.01 3.01 0 0 1-1.25.92 4.3 4.3 0 0 1-1.63.32 4.63 4.63 0 0 1-1.63-.28 3.63 3.63 0 0 1-1.27-.78 3.54 3.54 0 0 1-.82-1.22 4.17 4.17 0 0 1-.3-1.6 3.96 3.96 0 0 1 1.08-2.73c.34-.35.74-.62 1.2-.82a3.64 3.64 0 0 1 1.52-.31c.6 0 1.15.07 1.66.22.5.15.93.4 1.29.75l-.62 1.04a2.87 2.87 0 0 0-1.03-.6 3.62 3.62 0 0 0-1.11-.17 2.6 2.6 0 0 0-1.8.72 2.54 2.54 0 0 0-.56.83c-.14.33-.21.69-.21 1.09a2.63 2.63 0 0 0 .8 1.92 2.96 2.96 0 0 0 3.12.44 3.05 3.05 0 0 0 .93-.7zm.68-6.34h6.82v1.31h-2.74v6.1h-1.33v-6.1h-2.74V77z"/>
  <path fill="#fff" fill-rule="evenodd" d="M145.86 84.33c.5-.16.94-.4 1.3-.73l-.4-1.04c-.24.22-.57.4-.96.55-.4.15-.85.23-1.33.23-.74 0-1.34-.2-1.82-.58-.48-.4-.74-.94-.8-1.64h5.76a4 4 0 0 0-.2-2.28 3.28 3.28 0 0 0-.74-1.07 3.3 3.3 0 0 0-1.1-.69 3.7 3.7 0 0 0-1.36-.25c-.63 0-1.17.1-1.65.3a3.64 3.64 0 0 0-1.2.83 3.48 3.48 0 0 0-.76 1.23 4.27 4.27 0 0 0-.26 1.51c0 .58.1 1.11.29 1.59a3.5 3.5 0 0 0 .8 1.22c.35.34.77.6 1.27.78a4.77 4.77 0 0 0 1.66.28 5.04 5.04 0 0 0 1.5-.24zm-3.36-5.7c.41-.38.96-.56 1.65-.56.64 0 1.17.18 1.55.53.37.34.58.83.61 1.44h-4.54a2.26 2.26 0 0 1 .73-1.41z" clip-rule="evenodd"/>
  <path fill="#fff" d="M149.5 77h1.21l2.88 3.67L156.3 77h1.18v7.4h-1.33V79l-2.59 3.44h-.05l-2.7-3.44v5.4h-1.32z"/>
  <path fill="#fff" fill-rule="evenodd" d="M161.11 77.02a4.19 4.19 0 0 0-1.14.5l.35 1.04c.3-.15.6-.27.9-.38.31-.11.7-.16 1.16-.16.37 0 .67.06.9.17.22.11.39.28.5.48.12.2.2.45.24.74.04.3.06.6.06.95a2.28 2.28 0 0 0-.9-.38 5.23 5.23 0 0 0-.97-.1c-.4 0-.76.06-1.12.16-.35.1-.65.25-.9.45a2.14 2.14 0 0 0-.59.74 2.3 2.3 0 0 0-.21 1c0 .73.2 1.3.63 1.7.42.4.97.6 1.66.6a3 3 0 0 0 1.5-.33c.38-.21.68-.46.9-.75v.96h1.25v-4.54c0-.97-.21-1.72-.64-2.24-.42-.53-1.17-.8-2.23-.8-.47 0-.92.07-1.35.2zm2.22 6a2 2 0 0 1-1.18.32c-.43 0-.77-.11-1-.32a1.1 1.1 0 0 1-.36-.85 1 1 0 0 1 .14-.54c.09-.16.22-.28.36-.38a1.6 1.6 0 0 1 .51-.23c.2-.05.39-.07.6-.07.65 0 1.21.16 1.67.49v.94a3.82 3.82 0 0 1-.74.64zm13.74-8.63c.27-.12.52-.33.75-.64l-.72-1.04c-.19.25-.4.43-.63.52a4 4 0 0 1-.78.21l-.25.05-.7.12a5.22 5.22 0 0 0-1.18.37c-.6.25-1.08.6-1.44 1.04-.36.45-.65.94-.84 1.5a7.8 7.8 0 0 0-.4 1.72c-.07.6-.1 1.17-.1 1.72 0 .7.1 1.35.28 1.92.18.58.44 1.06.79 1.45.34.4.76.7 1.24.91.5.22 1.04.33 1.65.33.57 0 1.09-.1 1.56-.3a3.76 3.76 0 0 0 1.21-.83 3.7 3.7 0 0 0 1.08-2.67 4.5 4.5 0 0 0-.24-1.52 3.27 3.27 0 0 0-.7-1.15 3.07 3.07 0 0 0-1.1-.75 3.83 3.83 0 0 0-1.44-.27c-.32 0-.64.04-.94.12a3.6 3.6 0 0 0-.84.36 3.2 3.2 0 0 0-.7.54c-.2.21-.37.44-.49.71h-.03a5.53 5.53 0 0 1 .47-2.07c.14-.33.33-.62.56-.88a2.52 2.52 0 0 1 .87-.63 4.65 4.65 0 0 1 1.15-.37l.27-.05.75-.14c.32-.07.62-.15.89-.28zm-4.68 7.12a4.15 4.15 0 0 1-.19-1.3 2.09 2.09 0 0 1 .3-.7c.15-.23.33-.43.55-.6a2.77 2.77 0 0 1 1.74-.6c.78 0 1.37.24 1.78.72.41.48.61 1.08.61 1.8 0 .36-.06.69-.18.98a2.36 2.36 0 0 1-1.28 1.33 2.45 2.45 0 0 1-2.02-.03 2.34 2.34 0 0 1-.8-.62 3.13 3.13 0 0 1-.51-.98zm16.4-4.51h-1.33v7.4h1.33zm-8.28 0h1.33v2.22h1.23c.58 0 1.05.07 1.43.21.38.15.68.34.9.57.23.23.4.5.49.82a3.3 3.3 0 0 1-.02 1.92c-.1.31-.28.59-.52.84-.23.25-.55.45-.95.6-.4.15-.9.23-1.49.23h-2.41V77zm1.33 3.46v2.71h.97c.66 0 1.13-.12 1.4-.35.27-.23.4-.56.4-1 0-.46-.14-.8-.4-1.03-.29-.23-.75-.35-1.39-.35h-.98z" clip-rule="evenodd"/>
  <path fill="#fff" d="M197.58 83.34c-.32.4-.74.71-1.24.92a4.29 4.29 0 0 1-1.64.32 4.63 4.63 0 0 1-1.63-.28 3.61 3.61 0 0 1-1.26-.78 3.56 3.56 0 0 1-.83-1.22 4.2 4.2 0 0 1-.29-1.6 3.94 3.94 0 0 1 1.08-2.73 3.6 3.6 0 0 1 1.2-.82 3.63 3.63 0 0 1 1.52-.31c.6 0 1.15.07 1.65.22s.94.4 1.3.75l-.62 1.04a2.89 2.89 0 0 0-1.03-.6 3.61 3.61 0 0 0-1.12-.17c-.34 0-.66.06-.97.19a2.59 2.59 0 0 0-.82.53 2.52 2.52 0 0 0-.57.83c-.14.33-.2.69-.2 1.09a2.63 2.63 0 0 0 .8 1.92c.24.23.52.4.85.52a2.87 2.87 0 0 0 2.27-.08 3.05 3.05 0 0 0 .92-.7zm.68-6.34h6.83v1.31h-2.75v6.1h-1.32v-6.1h-2.75V77z"/>
  <path fill="#fff" fill-rule="evenodd" d="M207.87 77h-1.33v10.7h1.33v-3.64c.26.18.58.3.95.38a4.91 4.91 0 0 0 2.76-.17 3.83 3.83 0 0 0 1.22-.85c.35-.36.61-.77.8-1.26a4.6 4.6 0 0 0 .03-3.09 3.52 3.52 0 0 0-.69-1.18 3 3 0 0 0-1.09-.78 3.49 3.49 0 0 0-1.44-.28c-.52 0-1 .1-1.47.3-.46.2-.82.44-1.07.74zm.92 1.37a2.84 2.84 0 0 1 2.28-.12 2.2 2.2 0 0 1 1.24 1.35 3.24 3.24 0 0 1-.03 2.12 2.4 2.4 0 0 1-.5.85 2.36 2.36 0 0 1-.83.56 2.69 2.69 0 0 1-1.08.2c-.36 0-.7-.03-1.02-.12a3.33 3.33 0 0 1-.98-.45V79.1c.23-.28.54-.52.92-.72zM224.07 77h-1.33v7.4h1.33zm-8.29 0h1.33v2.22h1.23c.58 0 1.05.07 1.43.21.38.15.68.34.91.57.23.23.39.5.48.82a3.28 3.28 0 0 1-.02 1.92c-.1.31-.27.59-.5.84a2.5 2.5 0 0 1-.97.6c-.4.15-.89.23-1.48.23h-2.41V77zm1.34 3.46v2.71h.97c.66 0 1.14-.12 1.4-.35.27-.23.41-.56.41-1 0-.46-.14-.8-.41-1.03-.28-.23-.74-.35-1.38-.35h-.99z" clip-rule="evenodd"/>
  <path fill="#fff" d="m230.45 80.57 2.85 3.83h-1.64l-2.2-3-2.22 3h-1.55l2.83-3.77-2.66-3.63h1.63l2.03 2.8 2.06-2.8h1.55zM113.63 93.56h-4.08v6.17h-1.33v-7.4h6.74v7.4h-1.33zm8.88.08h-2.62l-.09 1.25c-.09 1.05-.22 1.9-.4 2.55a4.61 4.61 0 0 1-.64 1.5 1.8 1.8 0 0 1-.89.7 3.06 3.06 0 0 1-1.08.19l-.1-1.28c.14 0 .31-.03.5-.11.18-.08.37-.27.54-.54.18-.28.34-.68.48-1.2.14-.52.24-1.2.29-2.06l.13-2.3h5.21v7.4h-1.33v-6.1z"/>
  <path fill="#fff" fill-rule="evenodd" d="M127.43 92.34a4 4 0 0 0-1.15.5l.36 1.04c.3-.15.6-.27.9-.38.3-.11.7-.16 1.16-.16.37 0 .66.06.89.17.23.11.4.28.51.48.12.2.2.45.24.74.04.3.06.6.06.95a2.28 2.28 0 0 0-.91-.38 5.22 5.22 0 0 0-.96-.1c-.4 0-.77.06-1.12.16-.35.1-.66.25-.9.45a2.14 2.14 0 0 0-.59.74 2.3 2.3 0 0 0-.22 1c0 .73.21 1.3.63 1.7.42.4.98.6 1.67.6a3 3 0 0 0 1.5-.33 3 3 0 0 0 .9-.75v.96h1.24v-4.54c0-.97-.2-1.72-.64-2.24-.42-.53-1.17-.8-2.23-.8a5.1 5.1 0 0 0-1.34.2zm2.23 6c-.3.22-.7.32-1.19.32-.44 0-.77-.11-1-.32a1.1 1.1 0 0 1-.35-.85c0-.2.04-.38.13-.54.1-.16.22-.28.36-.38.15-.1.32-.18.52-.23a2.33 2.33 0 0 1 .58-.07c.66 0 1.22.16 1.69.49v.94a3.83 3.83 0 0 1-.74.64z" clip-rule="evenodd"/>
  <path fill="#fff" d="M132.95 92.32h6.82v1.32h-2.74v6.09h-1.33v-6.09h-2.75v-1.32z"/>
  <path fill="#fff" fill-rule="evenodd" d="M145.98 99.65c.5-.15.94-.4 1.3-.73l-.4-1.03c-.24.22-.57.4-.97.55-.4.15-.84.22-1.33.22-.73 0-1.33-.19-1.81-.58a2.26 2.26 0 0 1-.8-1.64h5.75a4.05 4.05 0 0 0-.19-2.27 3.26 3.26 0 0 0-.74-1.07 3.28 3.28 0 0 0-1.11-.7 3.7 3.7 0 0 0-1.36-.24c-.62 0-1.17.1-1.65.3a3.62 3.62 0 0 0-1.2.83 3.5 3.5 0 0 0-.75 1.22 4.3 4.3 0 0 0-.26 1.52c0 .58.1 1.11.29 1.59a3.52 3.52 0 0 0 2.07 2 4.77 4.77 0 0 0 1.65.28c.5 0 1-.09 1.51-.25zm-3.37-5.7c.41-.38.96-.56 1.65-.56.65 0 1.17.18 1.55.52.37.35.58.84.61 1.45h-4.54a2.26 2.26 0 0 1 .73-1.41zm5.85-1.63h1.68l2.56 3.57-2.74 3.84h-1.63l2.88-3.84-2.75-3.57zm4.57 0h1.33v7.41h-1.33zm6.09 7.41-2.93-3.84 2.73-3.57h-1.65l-2.58 3.57 2.78 3.84zm6.07-.08c.5-.15.94-.4 1.3-.73l-.4-1.03c-.24.22-.57.4-.96.55-.4.15-.85.22-1.33.22-.74 0-1.34-.19-1.82-.58a2.26 2.26 0 0 1-.8-1.64h5.75a4 4 0 0 0-.19-2.27 3.28 3.28 0 0 0-.74-1.07 3.28 3.28 0 0 0-1.11-.7 3.7 3.7 0 0 0-1.36-.24c-.62 0-1.16.1-1.64.3a3.62 3.62 0 0 0-1.2.83 3.46 3.46 0 0 0-.76 1.22 4.27 4.27 0 0 0-.26 1.52c0 .58.1 1.11.29 1.59a3.5 3.5 0 0 0 2.07 2 4.77 4.77 0 0 0 1.66.28 5.04 5.04 0 0 0 1.5-.25zm-3.37-5.7c.41-.38.96-.56 1.65-.56.65 0 1.17.18 1.55.52.38.35.58.84.61 1.45h-4.54a2.26 2.26 0 0 1 .73-1.41zm10.6-4.11c-.79 0-1.22-.44-1.29-1.3h-1.25c0 .33.06.63.17.91.1.29.27.53.48.73.2.2.48.36.79.48.31.12.67.18 1.08.18a2.64 2.64 0 0 0 1.8-.66 2.25 2.25 0 0 0 .67-1.64h-1.24c-.06.86-.48 1.3-1.22 1.3zm-3.6 2.48v7.41h1.33l4.32-5.52v5.52h1.33v-7.4h-1.33l-4.32 5.51v-5.52z" clip-rule="evenodd"/>
</svg>