<svg xmlns="http://www.w3.org/2000/svg" fill="none" viewBox="0 0 28 32">
  <path fill="#00F6FF" fill-rule="evenodd" d="M13.56 31.86a1.22 1.22 0 0 0 1.15 0l5.71-3.06a13.5 13.5 0 0 0 3.88-2.95 13.2 13.2 0 0 0 3.3-8.79l-.07-10.62a2.9 2.9 0 0 0-2-2.72L14.91.16a3.02 3.02 0 0 0-1.97.01L2.37 3.86A2.9 2.9 0 0 0 .4 6.6l.07 10.62a13.2 13.2 0 0 0 3.42 8.75c1 1.11 2.28 2.06 3.91 2.91l5.76 2.98Zm-1.5-12.49c.23.23.54.35.85.34.31 0 .62-.11.85-.35L20 13.21c.47-.46.47-1.2 0-1.66a1.23 1.23 0 0 0-1.72 0l-5.39 5.32-2.2-2.12a1.23 1.23 0 0 0-1.71.01c-.47.46-.47 1.2 0 1.66l3.07 2.95Z" clip-rule="evenodd"/>
</svg>